<?xml version="1.0" encoding="utf-8"?>
<!-- Generator: Adobe Illustrator 14.0.0, SVG Export Plug-In . SVG Version: 6.00 Build 43363)  -->
<!DOCTYPE svg PUBLIC "-//W3C//DTD SVG 1.1 Basic//EN" "http://www.w3.org/Graphics/SVG/1.1/DTD/svg11-basic.dtd">
<svg version="1.1" baseProfile="basic" id="Layer_1"
	 xmlns="http://www.w3.org/2000/svg" xmlns:xlink="http://www.w3.org/1999/xlink" x="0px" y="0px" width="10px"
	 height="20px" viewBox="0 0 137.775 40.764" xml:space="preserve">
<g>
	<defs>
		<rect id="SVGID_1_" y="0" width="137.775" height="40.764"/>
	</defs>
	<clipPath id="SVGID_2_">
		<use xlink:href="#SVGID_1_"  overflow="visible"/>
	</clipPath>
	<path clip-path="url(#SVGID_2_)" fill="#AFD7E0" d="M59.61,14.939c1.812,0,3.29-1.444,3.29-3.214c0-1.771-1.478-3.216-3.29-3.216
		s-3.29,1.445-3.29,3.216C56.32,13.496,57.798,14.939,59.61,14.939"/>
	<path clip-path="url(#SVGID_2_)" fill="#AFD7E0" d="M124.657,9.041c-0.23-0.397-0.503-0.711-0.816-0.941
		c-0.313-0.231-0.69-0.346-1.13-0.346c-0.418,0-0.784,0.115-1.099,0.346c-0.313,0.23-0.585,0.544-0.815,0.941l-10.848,18.02h-4.866
		c-1.067,0-1.889-0.273-2.464-0.817c-0.399-0.378-0.661-0.843-0.783-1.394l0.05-12.652h9.155l2.242-3.986H101.84L101.839,0h-3.804
		v8.212h-8.699v0.017H74.768c-1.13,0-2.134,0.163-3.013,0.487c-0.879,0.325-1.617,0.769-2.213,1.334
		c-0.596,0.564-1.046,1.24-1.35,2.024c-0.303,0.784-0.455,1.637-0.455,2.558c0,0.942,0.162,1.81,0.486,2.605
		c0.324,0.795,0.785,1.481,1.381,2.055c0.596,0.576,1.329,1.026,2.197,1.35s1.837,0.486,2.902,0.486h10.483
		c1.067,0,1.889,0.241,2.463,0.723c0.575,0.481,0.863,1.224,0.863,2.228c0,0.9-0.288,1.622-0.863,2.165
		c-0.575,0.544-1.396,0.817-2.463,0.817h-2.944h-14.16h-2.945c-1.067,0-1.888-0.273-2.464-0.817
		c-0.575-0.543-0.862-1.265-0.863-2.165l-0.008-5.817v-0.62h-0.392v-0.009H50.742v0.001h-0.531L39.886,35.209l-8.253-14.006
		c0.057-0.54,0.086-1.086,0.086-1.641c0-8.735-7.125-15.859-15.86-15.859C7.125,3.704,0,10.828,0,19.563
		c0,8.735,7.125,15.86,15.859,15.86c6.208,0,11.588-3.607,14.189-8.825l7.736,12.879c0.229,0.398,0.502,0.711,0.815,0.942
		c0.315,0.229,0.692,0.345,1.13,0.345c0.419,0,0.785-0.115,1.099-0.345c0.314-0.231,0.586-0.544,0.816-0.942l11.08-18.406h5.322
		v3.169l-0.001,0.121c0,0.963,0.147,1.853,0.44,2.668c0.293,0.816,0.732,1.522,1.317,2.118c0.586,0.597,1.325,1.063,2.213,1.397
		c0.89,0.335,1.931,0.502,3.123,0.502h2.945h14.16h2.944c1.192,0,2.234-0.167,3.122-0.502c0.89-0.335,1.627-0.801,2.213-1.397
		c0.585-0.596,1.025-1.302,1.318-2.118c0.293-0.815,0.439-1.705,0.439-2.668c0-2.217-0.597-3.871-1.789-4.958
		c-1.192-1.088-2.961-1.632-5.304-1.632H74.736c-0.879,0-1.574-0.241-2.087-0.722c-0.513-0.482-0.77-1.162-0.77-2.04
		c0-0.879,0.246-1.565,0.738-2.056c0.491-0.492,1.208-0.737,2.149-0.737H91.15v-0.018h6.848v10.185
		c-0.012,0.799-0.008,1.642-0.008,1.978c0,0.128,0.002,0.254,0.008,0.379v0.11h0.005c0.042,0.776,0.185,1.503,0.427,2.179
		c0.293,0.816,0.732,1.522,1.318,2.118c0.585,0.597,1.323,1.063,2.212,1.397c0.89,0.335,1.932,0.502,3.123,0.502h6.872v-0.162h0.273
		l10.326-17.575l10.356,17.575h4.864L124.657,9.041z M27.481,21.079l-0.031,0.214l-15.221,0.028l-1.834-3.94H23.61
		c-0.899-3.527-4.13-6.055-7.799-6.055c-4.438,0-8.048,3.61-8.048,8.048c0,4.423,3.611,8.033,8.049,8.048l3.936,0.014l1.907,3.701
		l-2.649,0.016c-0.995,0.007-1.925,0.015-3.195,0.015c-6.503,0-11.793-5.29-11.793-11.793c0-6.503,5.29-11.793,11.793-11.793
		s11.794,5.29,11.794,11.793C27.605,19.94,27.563,20.515,27.481,21.079"/>
</g>
</svg>
